<svg width="208" height="53" viewBox="0 0 208 53" fill="none" xmlns="http://www.w3.org/2000/svg">
<g clip-path="url(#clip0_705_733)">
<mask id="mask0_705_733" style="mask-type:luminance" maskUnits="userSpaceOnUse" x="0" y="0" width="208" height="53">
<path d="M207.024 0H0V53H207.024V0Z" fill="white"/>
</mask>
<g mask="url(#mask0_705_733)">
<path d="M49.5163 13.3574L48.3674 11.3506C48.2776 11.1935 48.1528 11.0593 48.0026 10.9583C47.8525 10.8573 47.6811 10.7922 47.5018 10.7682C47.3224 10.7442 47.1399 10.7619 46.9685 10.8199C46.7971 10.8779 46.6414 10.9746 46.5135 11.1026L43.8893 13.7267C43.6961 13.9201 43.5758 14.1744 43.5489 14.4464C43.5221 14.7185 43.5903 14.9914 43.742 15.2188C44.7008 16.683 45.4686 18.2637 46.0267 19.9225C47.0692 23.0221 47.3595 26.3251 46.8735 29.559C46.3875 32.7929 45.1392 35.8647 43.2317 38.5209C41.3242 41.1771 38.8122 43.3414 35.9031 44.8352C32.994 46.3289 29.7713 47.1092 26.5012 47.1117C23.1323 47.1212 19.8133 46.2972 16.8401 44.7132L21.2883 40.2668C23.5162 41.1102 25.9156 41.4002 28.2803 41.112C30.645 40.8237 32.9045 39.9658 34.8646 38.612C36.8247 37.2581 38.4269 35.4487 39.5337 33.3391C40.6404 31.2296 41.2186 28.8829 41.2185 26.5007C41.2175 25.9916 41.1895 25.483 41.1346 24.9769C40.9601 23.2779 40.4905 21.6224 39.747 20.0848C39.6639 19.9178 39.5424 19.7728 39.3925 19.6618C39.2426 19.5508 39.0686 19.4769 38.8846 19.4462C38.7006 19.4154 38.512 19.4287 38.3341 19.4849C38.1563 19.5411 37.9942 19.6387 37.8614 19.7696L35.198 22.4329C35.0562 22.5744 34.9528 22.7497 34.8976 22.9422C34.8425 23.1348 34.8374 23.3382 34.8828 23.5333L35.1066 24.4901C35.5002 26.1638 35.3965 27.916 34.8083 29.5316C34.2201 31.1472 33.173 32.5559 31.7955 33.5849C30.418 34.6138 28.7701 35.2181 27.054 35.3237C25.3378 35.4293 23.6283 35.0315 22.135 34.1792L20.9637 33.5078C20.7396 33.3785 20.479 33.3267 20.2225 33.3604C19.9659 33.3941 19.7276 33.5115 19.5444 33.6943L8.67846 44.5472C8.55993 44.6656 8.46807 44.808 8.40901 44.9649C8.34995 45.1217 8.32506 45.2893 8.33601 45.4565C8.34696 45.6237 8.39349 45.7867 8.47249 45.9345C8.55149 46.0822 8.66113 46.2114 8.79409 46.3134L10.3943 47.5406C15.0088 51.0971 20.6752 53.0176 26.5012 52.9997C41.1122 52.9997 53.0002 41.1117 53.0002 26.5007C53.0015 21.8912 51.8006 17.3611 49.5163 13.3574Z" fill="url(#paint0_linear_705_733)"/>
<path d="M42.6059 5.45922C37.992 1.903 32.3263 -0.0175152 26.5009 0.000120381C11.888 0.000120381 4.02815e-07 11.8881 4.02815e-07 26.501C-0.00080294 31.1104 1.2 35.6404 3.48397 39.6442L4.63286 41.6511C4.72249 41.81 4.84784 41.9459 4.99902 42.0481C5.15019 42.1502 5.32306 42.2158 5.50395 42.2397C5.68484 42.2636 5.8688 42.2451 6.04131 42.1856C6.21382 42.1262 6.37015 42.0275 6.49794 41.8972L9.12024 39.2749C9.31348 39.0816 9.43376 38.8273 9.46063 38.5553C9.48749 38.2832 9.41927 38.0103 9.26759 37.7829C8.30946 36.3183 7.54172 34.7377 6.98286 33.0791C5.94017 29.9801 5.64954 26.6775 6.13498 23.444C6.62041 20.2104 7.86797 17.1388 9.77468 14.4825C11.6814 11.8262 14.1925 9.66159 17.1008 8.16724C20.0091 6.67288 23.2312 5.8917 26.5009 5.88819C29.8692 5.8789 33.1875 6.70286 36.1602 8.28667L31.7064 12.7348C29.4785 11.8909 27.0791 11.6005 24.7143 11.8885C22.3494 12.1766 20.0899 13.0345 18.1298 14.3885C16.1696 15.7425 14.5676 17.5521 13.4612 19.662C12.3548 21.7718 11.7772 24.1187 11.778 26.501C11.778 26.7453 11.8433 27.8607 11.8638 28.0528C12.0438 29.7411 12.5132 31.3859 13.2514 32.915C13.3333 33.0846 13.4545 33.2321 13.605 33.3453C13.7555 33.4585 13.9309 33.534 14.1166 33.5656C14.3022 33.5972 14.4927 33.5839 14.6722 33.5268C14.8516 33.4698 15.0148 33.3706 15.1482 33.2377L17.8115 30.5762C17.954 30.4336 18.0575 30.257 18.1124 30.0631C18.1672 29.8691 18.1715 29.6644 18.1249 29.4684L17.9048 28.519C17.7501 27.8574 17.6713 27.1804 17.6698 26.501C17.6698 24.9553 18.0757 23.4366 18.847 22.097C19.6183 20.7575 20.728 19.644 22.0648 18.868C23.4017 18.092 24.9189 17.6808 26.4647 17.6754C28.0104 17.67 29.5304 18.0707 30.8727 18.8374L32.0458 19.5088C32.2698 19.6376 32.5299 19.6892 32.7861 19.6555C33.0423 19.6218 33.2802 19.5047 33.4633 19.3223L44.3218 8.46385C44.4403 8.34523 44.5322 8.20269 44.5913 8.04572C44.6504 7.88875 44.6753 7.72099 44.6643 7.55363C44.6534 7.38627 44.6068 7.22317 44.5278 7.07523C44.4488 6.92729 44.3391 6.79793 44.2061 6.69577L42.6059 5.45922Z" fill="url(#paint1_linear_705_733)"/>
<path d="M87.243 33.8086C87.0448 33.6478 86.7958 33.5627 86.5406 33.5685C86.2854 33.5743 86.0405 33.6706 85.8498 33.8403C84.147 35.1627 82.1719 36.3861 79.2847 36.3861C74.001 36.3861 69.702 31.9342 69.702 26.4602C69.702 20.9862 73.9823 16.4969 79.2456 16.4969C81.5378 16.4969 83.9997 17.4574 85.8162 19.0502C85.9177 19.1698 86.0445 19.2652 86.1874 19.3298C86.3303 19.3943 86.4857 19.4262 86.6425 19.4232C86.7768 19.4118 86.9071 19.3713 87.0243 19.3047C87.1415 19.238 87.2428 19.1468 87.3214 19.0372L89.041 17.2672C89.1499 17.1605 89.2358 17.0327 89.2936 16.8916C89.3513 16.7504 89.3796 16.599 89.3767 16.4466C89.3707 16.2918 89.3326 16.1399 89.2649 16.0005C89.1971 15.8612 89.1012 15.7375 88.9832 15.6371C85.999 13.026 82.9757 11.8585 79.2064 11.8585C71.1604 11.8585 64.614 18.4459 64.614 26.5422C64.617 30.4125 66.155 34.1236 68.8906 36.8613C71.6263 39.5991 75.3361 41.1399 79.2064 41.1458C82.9925 41.1458 86.3926 39.7806 89.041 37.1919C89.1549 37.0759 89.2443 36.9382 89.3039 36.7869C89.3635 36.6357 89.392 36.474 89.3879 36.3115C89.3864 36.1806 89.3582 36.0513 89.305 35.9317C89.2517 35.8121 89.1746 35.7046 89.0783 35.6159L87.243 33.8086Z" fill="#3D3652"/>
<path d="M99.7516 12.2539H97.1405C96.8477 12.2621 96.5693 12.383 96.3636 12.5916C96.1578 12.8001 96.0406 13.0801 96.0364 13.373V39.6389C96.043 39.9302 96.1612 40.2078 96.3667 40.4143C96.5722 40.6209 96.8493 40.7406 97.1405 40.7486H99.7516C100.043 40.7406 100.32 40.621 100.526 40.4145C100.732 40.208 100.851 39.9304 100.858 39.6389V13.3636C100.851 13.072 100.732 12.7942 100.527 12.5876C100.321 12.381 100.043 12.2615 99.7516 12.2539Z" fill="#3D3652"/>
<path d="M130.556 21.1019C130.556 16.2265 126.538 12.2539 121.603 12.2539H110.874C110.579 12.2578 110.299 12.3775 110.092 12.5869C109.885 12.7963 109.77 13.0787 109.77 13.373V39.6389C109.772 39.9315 109.889 40.2115 110.095 40.419C110.302 40.6264 110.581 40.7447 110.874 40.7486H113.438C113.729 40.7401 114.006 40.6203 114.211 40.4138C114.417 40.2074 114.535 39.93 114.542 39.6389V29.8733H119.925L125.073 40.1947C125.166 40.3643 125.303 40.5057 125.47 40.6042C125.636 40.7026 125.826 40.7544 126.02 40.7542H129.097C129.292 40.7609 129.484 40.7159 129.656 40.6238C129.827 40.5317 129.971 40.3959 130.073 40.2301C130.172 40.0545 130.224 39.8564 130.224 39.6548C130.224 39.4532 130.172 39.255 130.073 39.0794L124.851 29.3399C128.383 27.7639 130.556 24.6418 130.556 21.1019ZM125.744 21.1821C125.744 23.657 123.704 25.7478 121.288 25.7478H114.621V16.814H121.286C123.702 16.814 125.742 18.8153 125.742 21.1821H125.744Z" fill="#3D3652"/>
<path d="M158.586 33.8086C158.388 33.6478 158.139 33.5627 157.884 33.5685C157.629 33.5743 157.384 33.6706 157.193 33.8403C155.49 35.1627 153.515 36.3861 150.628 36.3861C145.344 36.3861 141.045 31.9342 141.045 26.4602C141.045 20.9862 145.335 16.4969 150.589 16.4969C152.879 16.4969 155.343 17.4574 157.159 19.0502C157.261 19.1699 157.387 19.2654 157.53 19.3299C157.673 19.3945 157.829 19.4263 157.986 19.4232C158.12 19.4118 158.25 19.3713 158.367 19.3047C158.485 19.238 158.586 19.1468 158.665 19.0372L160.384 17.2672C160.493 17.1603 160.578 17.0324 160.636 16.8913C160.693 16.7502 160.721 16.5989 160.718 16.4466C160.712 16.2919 160.674 16.1401 160.607 16.0008C160.54 15.8614 160.444 15.7376 160.326 15.6371C157.342 13.026 154.319 11.8585 150.55 11.8585C142.502 11.8566 135.965 18.4441 135.965 26.5404C135.968 30.411 137.506 34.1223 140.242 36.8601C142.978 39.5979 146.688 41.1385 150.559 41.144C154.343 41.144 157.743 39.7787 160.393 37.19C160.507 37.0737 160.597 36.9356 160.656 36.7841C160.716 36.6326 160.745 36.4706 160.74 36.3078C160.738 36.1772 160.71 36.0484 160.657 35.9292C160.603 35.8099 160.527 35.7027 160.431 35.614L158.586 33.8086Z" fill="#3D3652"/>
<path d="M182.532 36.3448H172.199V13.3633C172.195 13.0704 172.078 12.7904 171.872 12.5819C171.666 12.3734 171.388 12.2524 171.095 12.2443H168.484C168.19 12.2482 167.909 12.3678 167.702 12.5772C167.496 12.7867 167.38 13.0691 167.38 13.3633V39.6386C167.382 39.9312 167.499 40.2112 167.706 40.4186C167.912 40.626 168.191 40.7444 168.484 40.7483H182.524C182.817 40.7449 183.097 40.6267 183.304 40.4193C183.511 40.2118 183.628 39.9315 183.63 39.6386V37.4546C183.628 37.1629 183.512 36.8837 183.307 36.6764C183.101 36.4691 182.823 36.3502 182.532 36.3448Z" fill="#3D3652"/>
<path d="M205.92 16.6943C206.214 16.6904 206.495 16.5707 206.701 16.3613C206.908 16.1519 207.024 15.8695 207.024 15.5752V13.3633C207.024 13.069 206.908 12.7866 206.701 12.5772C206.495 12.3678 206.214 12.2481 205.92 12.2442H190.143C189.849 12.2481 189.568 12.3678 189.361 12.5772C189.155 12.7866 189.039 13.069 189.039 13.3633V39.6385C189.041 39.9311 189.158 40.2111 189.365 40.4186C189.571 40.626 189.85 40.7443 190.143 40.7482H205.92C206.212 40.7443 206.492 40.626 206.698 40.4186C206.904 40.2111 207.021 39.9311 207.024 39.6385V37.4545C207.021 37.1619 206.904 36.8819 206.698 36.6744C206.492 36.467 206.212 36.3487 205.92 36.3448H193.812V28.5226H203.986C204.28 28.5192 204.561 28.3998 204.768 28.1903C204.975 27.9808 205.092 27.6981 205.092 27.4036V25.1916C205.085 24.9 204.966 24.6221 204.761 24.4155C204.555 24.2089 204.277 24.0895 203.986 24.0819H193.812V16.6943H205.92Z" fill="#3D3652"/>
</g>
</g>
<defs>
<linearGradient id="paint0_linear_705_733" x1="17.1553" y1="54.6876" x2="54.4606" y2="17.3823" gradientUnits="userSpaceOnUse">
<stop stop-color="#B090F5"/>
<stop offset="1" stop-color="#5FBFFF"/>
</linearGradient>
<linearGradient id="paint1_linear_705_733" x1="4.02815e-07" y1="21.1221" x2="44.6668" y2="21.1221" gradientUnits="userSpaceOnUse">
<stop stop-color="#68D7FA"/>
<stop offset="1" stop-color="#7EF1B3"/>
</linearGradient>
<clipPath id="clip0_705_733">
<rect width="208" height="53" fill="white"/>
</clipPath>
</defs>
</svg>
