<?xml version="1.0" standalone="no"?>
<!DOCTYPE svg PUBLIC "-//W3C//DTD SVG 20010904//EN"
 "http://www.w3.org/TR/2001/REC-SVG-20010904/DTD/svg10.dtd">
<svg version="1.0" xmlns="http://www.w3.org/2000/svg"
 width="400.000000pt" height="400.000000pt" viewBox="0 0 400.000000 400.000000"
 preserveAspectRatio="xMidYMid meet">

<g transform="translate(0.000000,400.000000) scale(0.100000,-0.100000)"
fill="#000000" stroke="none">
<path d="M0 2000 l0 -2000 2000 0 2000 0 0 2000 0 2000 -2000 0 -2000 0 0
-2000z m1720 251 l0 -998 -27 -6 c-38 -7 -206 -7 -232 0 l-21 5 0 999 0 999
140 0 140 0 0 -999z m848 -1351 c1 -63 0 -125 -3 -138 l-5 -22 -558 2 -557 3
-3 115 c-1 63 0 125 3 138 l5 22 558 -2 557 -3 3 -115z"/>
</g>
</svg>
